/* XPM */
static char *close_door[] = {
/* columns rows colors chars-per-pixel */
"96 96 16 1 ",
"  c #6E5967",
". c #926475",
"X c #AD707B",
"o c #D2727E",
"O c #5D7889",
"+ c #B77F83",
"@ c #728896",
"# c #B98080",
"$ c #86A0A8",
"% c #C39490",
"& c #E28989",
"* c #EDA799",
"= c #D1B1A5",
"- c #DCCABE",
"; c #FBCAAE",
": c #FAEBCF",
/* pixels */
"                                                                                                ",
"XX%%%%%%=======%%%==%%%%%%%%%%%%%%%%%%%%%%%%%XX XX%%%%%%=======%%%==%%%%%%%%%%%%%%%%%%%%%%%%%XX ",
"XX%%%%%%=======%%%==%%%%%%%%%%%%%%%%%%%%%%%%%XX XX%%%%%%=======%%%==%%%%%%%%%%%%%%%%%%%%%%%%%XX ",
"%%%%%%%%%%%%%%%%%%%%%%%%%%%%%%%%%%%%%%%%%%%%%%% %%%%%%%%%%%%%%%%%%%%%%%%%%%%%%%%%%%%%%%%%%%%%%% ",
"%%%%%%%%%%%%%%%%%%%%%%%%%%%%%%XX%XXXXXXXX%%%    %%%%%%%%%%%%%%%%%%%%%%%%%%%%%%XX%XXXXXXXX%%%    ",
"%%%%%%%%%%%%%%%%%%%%%%%%%%%%%%XX%XXXXXXXX%%%    %%%%%%%%%%%%%%%%%%%%%%%%%%%%%%XX%XXXXXXXX%%%    ",
"%%%%%%%%%%%%%%%%%%%%%%%%%%%%%%%%=%%====%%%%%%++ %%%%%%%%%%%%%%%%%%%%%%%%%%%%%%%%=%%====%%%%%%++ ",
"%%%%%%%%%%%%%%%%%%%%%%%%%%%%%%%%%%%%%%%%%%%%%%% %%%%%%%%%%%%%%%%%%%%%%%%%%%%%%%%%%%%%%%%%%%%%%% ",
"%%%%%%%%%%%%%%%%%%%%%%%%%%%%%                                     %%%%%%%%%%%%%%%%%%%%%%%%%%%%% ",
"%%%%%%%%%%%%%%%%%%%%%%%%%%                                           %%%%%%%%%%%%%%%%%%%%%%%%%% ",
"XX%%%%%%%%%%%%%%%%%%%%%%%%   ;** *;;;;::;:::;*  *;;;;:;::::;;* **;   %%%%%%%%%%%%%%%%%%%%%%%%XX ",
"XX%%%%%%%%%%%%%%%%%%%%%%     ;** *;;;;::;:::;*  *;;;;:;::::;;* **;     %%%%%%%%%%%%%%%%%%%%%%XX ",
"                          **;;;; ;;;;;;;;;;;;;  ;;;;;;;;;;;;;; ;;;;**                           ",
"=====%%%%%%%%%%%%%%%%   *:::;;;; ;;;;;;;;;;;;;  ;;;;;;;;;;;;;; ;;;;:::*   %%%%==%========%%%%%%%",
"=====%%%%%%%%%%%%%%%% **:;;;;;** *;;;;;;;;;;;*  *;;;;;;;;;;;;* **;;;;;:** %%%%==%========%%%%%%%",
"%%%%%%%%%%%%%%%%%%%%  **:;;;;;** *;;;;;;;;;;;*  *;;;;;;;;;;;;* **;;;;;:**  %%%%%%%%%%%%%%%%%%%%%",
"%%%%%%%%%%%XXX%XX%%% *::;;;;*&&& &&&&&&&&&&&&&  &&&&&&&&&&&&&& &&&*;;;;::* %%%%%%%%%%%%%%%%%%%%%",
"%%%%%%%%%%%XXX%XX%   ;;;;;**&&oo                               oo&&**;;;;;   %%%%%%%%%%%%%%%%%%%",
"%%%%%%%%%==%===%%%  *;;;;*&&&     ..XXXXXXXXX.   O   .XXXXXXXX.   &&&*;;;;*  %%%%%%%%%%%%%%%%%%%",
"%%%%%%%%%%%%%%%%%%  *;;;;*&&&     ..XXXXXXXXX.   O   .XXXXXXXX.   &&&*;;;;*  %%%%%%%%%%%%%%%%%%%",
"%%%%%%%%%%%%%%%%%   ;;;;;&&&     .XXXXXXXXXXXX   O   XXXXXXXXXX..  &&&;;;;;   %%%%%%%%%%%%%%%%%%",
"%%%%%%%%%%%%%%%%% **;;;;*&                       O                   &*;;;;** %%%%%%%%%%%%%%%%%%",
"%%%%%%%%%%%%%%%%% **;;;;*&                       O                   &*;;;;** %%%%%%%%%%%%%%%%%%",
"%%%%%%%%%%%%%%%%% ;;;;;;&&    ..XXXXXXXXXXXXX.   O                   &&;;;;;; %%%%%%%%%%%%%%%%%%",
"                  ;;;;;;&    .XXX#%%%%%%%%%%#X   @   X#%%%%%%%%%%#X.. &;;;;;;                   ",
"XX%%%%==%===----- **;;**&    XXXX%%%%%%%%%%%%X   @   X%%%%%%%%%%%%XXX &**;;** %%%%%%%%%%%%%%%XX ",
"XX%%%%==%===----- **;;**&    XXXX%%%%%%%%%%%%X   @   X%%%%%%%%%%%%XXX &**;;** %%%%%%%%%%%%%%%XX ",
"%%%%%%%%%%%%%%%%%                                O                            %%%%%%%%%%%%%%%%% ",
"%%%%%%%%%%%%%%%%% **;;**&       X%%%%%%%%%%%%%XX @ XX%%%%%%%%%%XX     &**;;** %%%%%%%%%%%%%%%%% ",
"%%%%%%%%%%%%%%%%% ;;;;;;&   O@OO %%%%%%%%%%%%%%% O %%%%%%%%%%%%  O@OO &;;;;;; %%%%%%%%%%%%%%%%% ",
"%%%%%%%%%%%%%%%%% ;;;;;;&   O@OO %%%%%%%%%%%%%%% O %%%%%%%%%%%%  O@OO &;;;;;; %%%%%%%%%%%%%%%++ ",
"%%%%%%%%%%%%%%%%% ::;;;;&   @$@@ %%%%%%%%%%%%%%% @ %%%%%%%%%%%%  @$@@ &;;;;:: %%%XXX%%X%%       ",
"%%%%%%%%%%%%%%%%% ::;;;;&       X%%%%%%%%%%%%%%% @ %%%%%%%%%%%%XX     &;;;;:: %%%XXX%%X%%       ",
"%%%%%%%%%%%%%%%%% ;;;;;;&   X%%%%%%%%%%%%%%%%%XX $ XX%%%%%%%%%%%%%%XX &;;;;;; %%%%%%==%===%%%%% ",
"XX%%%%%%%%%%%%%%% ;;;;;;&   X%%%%%%%%%%%%%%%%%XX $ XX%%%%%%%%%%%%%%XX &;;;;;; %%%%%%%%%%%%%%%XX ",
"XX%%%%%%%%%%%%%%% ::;;;;&                        $                    &;;;;:: %%%%%%%%%%%%%%%XX ",
"                  ;;;;;;&                        $ XX%%%%%%%%%%%%%%XX &;;;;;;                   ",
"%%%%%%%%%%%%%%%%% ;;;;;;&   .XXXXXXXXXXXXXXXXX.. @ %%%%%%%%%%%%%%%%%% &;;;;;; ==%=====----===%%%",
"%%%%%%%%%%%%%%%%% ;;;;;;&   .XXXXXXXXXXXXXXXXX.. @ %%%%%%%%%%%%%%%%%% &;;;;;; ==%=====----===%%%",
"%%%%%%%%%%%%%%%%% ;;;;;;&   XXXXXXXXXXXXXXXXXXXX $ %%%%%%%%%%%%%%%%%% &;;;;;; %%%%%%%%%%%%%%%%%%",
"%%%%%%XXXXX%%%X%% **;;**&   .XXXXXXXXXXXXXXXXX.. @ XX%%%%%%%%%%%%%%XX &**;;** %%%%%%%%%%%%%%%%%%",
"%%%%%%XXXXX%%%X%% **;;**&   .XXXXXXXXXXXXXXXXX.. @ XX%%%%%%%%%%%%%%XX &**;;** %%%%%%%%%%%%%%%%%%",
"%%%%%%%%=%%%%%===                                @                            %%%%%%%%%%%%%%%%%%",
"%%%%%%%%%%%%%%%%% **;;**&   X%%%%%%%%%%%%%%%%%XX O XX%%%%%%%%%%%%%%XX &**;;** %%%%%%%%%%%%%%%%%%",
"%%%%%%%%%%%%%%%%% ;;;;;;&   %%%%%%%%%%%%%%%%%%%% O %%%%%%%%%%%%%%%%%% &;;;;;; %%%%%%%%%%%%%%%%%%",
"%%%%%%%%%%%%%%%%% ;;;;;;&   %%%%%%%%%%%%%%%%%%%% O %%%%%%%%%%%%%%%%%% &;;;;;; %%%%%%%%%%%%%%%%%%",
"%%%%%%%%%%%%%%%%% ::;;;;&   %%%%%%%%%%%%%%%%%X       X%%%%%%%%%%%%%%% &;;;;:: %%%%%%%%%%%%%%%%%%",
"%%%%%%%%%%%%%%%%% ::;;;;&   X%%%%%%%%%%%%%%%# $$$ $$$ #%%%%%%%%%%%%XX &;;;;:: %%%%%%%%%%%%%%%%%%",
"                  ;;;;;;&                     @@$ @$$                 &;;;;;;                   ",
"XX%%%%%%=======%% ;;;;;;&                     @@$ @$$                 &;;;;;; %%%%%%%%%%%%%%%XX ",
"XX%%%%%%=======%% ::;;;;&                     @@$ @$$ X%%%%%%%%%%%%XX &;;;;:: %%%%%%%%%%%%%%%XX ",
"%%%%%%%%%%%%%%%%% ;;;;;;&    .XXXXXXXXXXXXXX. @@$ @$$ %%%%%%%%%%%%%%% &;;;;;; %%%%%%%%%%%%%%%%% ",
"%%%%%%%%%%%%%%%%% ;;;;;;&    XXXXXXXXXXXXXXXX @@$ @$$ %%%%%%%%%%%%%%% &;;;;;; XX%XXXXXXXX%%%    ",
"%%%%%%%%%%%%%%%%% ;;;;;;&    XXXXXXXXXXXXXXXX @@$ @$$ %%%%%%%%%%%%%%% &;;;;;; XX%XXXXXXXX%%%    ",
"%%%%%%%%%%%%%%%%% ;;;;;;&    .XXXXXXXXXXXXXX. @@$ @$$ X%%%%%%%%%%%%XX &;;;;;; %%=%%====%%%%%%++ ",
"%%%%%%%%%%%%%%%%% **;;**&                     @@$ @$$                 &**;;** %%%%%%%%%%%%%%%%% ",
"%%%%%%%%%%%%%%%%%           X%%%%%%%%%%%%%%%X @@$ @$$                         %%%%%%%%%%%%%%%%% ",
"%%%%%%%%%%%%%%%%%           X%%%%%%%%%%%%%%%X @@$ @$$                         %%%%%%%%%%%%%%%%% ",
"XX%%%%%%%%%%%%%%% **;;**&   %%%%%%%%%%%%%%%%% @@$ @$$ .XXXXXXXXXXXX.. &**;;** %%%%%%%%%%%%%%%XX ",
"XX%%%%%%%%%%%%%%% ;;;;;;&   %%%%%%%%%%%%%%%%% @@$ @$$ XXXXXXXXXXXXXXX &;;;;;; %%%%%%%%%%%%%%%XX ",
"                  ;;;;;;&   %%%%%%%%%%%%%%%%% @@$ @$$ XXXXXXXXXXXXXXX &;;;;;;                   ",
"=====%%%%%%%%%%%% ::;;;;&   X%%%%%%%%%%%%%%%X @@$ @$$ .XXXXXXXXXXXX.. &;;;;:: ==%========%%%%%%%",
"=====%%%%%%%%%%%% ::;;;;&                     @@$ @$$                 &;;;;:: ==%========%%%%%%%",
"%%%%%%%%%%%%%%%%% ;;;;;;&   X%%%%%%%%%%%%%%%# OO$ O$$ #%%%%%%%%%%%%%% &;;;;;; %%%%%%%%%%%%%%%%%%",
"%%%%%%%%%%%XXX%XX ;;;;;;&   X%%%%%%%%%%%%%%%# OO$ O$$ #%%%%%%%%%%%%%% &;;;;;; %%%%%%%%%%%%%%%%%%",
"%%%%%%%%%%%XXX%XX ::;;;;&       X%%%%%%%%%%%%X   O   X%%%%%%%%%XX     &;;;;:: %%%%%%%%%%%%%%%%%%",
"%%%%%%%%%==%===%% ;;;;;;&   @$@@ %%%%%%%%%%%%%## O ##%%%%%%%%%%  @$@@ &;;;;;; %%%%%%%%%%%%%%%%%%",
"%%%%%%%%%%%%%%%%% ;;;;;;&   O@OO %%%%%%%%%%%%%%% @ %%%%%%%%%%%%  O@OO &;;;;;; %%%%%%%%%%%%%%%%%%",
"%%%%%%%%%%%%%%%%% ;;;;;;&   O@OO %%%%%%%%%%%%%%% @ %%%%%%%%%%%%  O@OO &;;;;;; %%%%%%%%%%%%%%%%%%",
"%%%%%%%%%%%%%%%%% ;;;;;;&       X%%%%%%%%%%%%%XX @ %%%%%%%%%%%%XX     &;;;;;; %%%%%%%%%%%%%%%%%%",
"%%%%%%%%%%%%%%%%% **;;**&                        @                    &**;;** %%%%%%%%%%%%%%%%%%",
"%%%%%%%%%%%%%%%%%           .XXXXXXXXXXXXXXXX.   O XX%%%%%%%%%%%%%%XX         %%%%%%%%%%%%%%%%%%",
"                            .XXXXXXXXXXXXXXXX.   O XX%%%%%%%%%%%%%%XX                           ",
"XX%%%%==%===----- **;;**&   XXXXXXXXXXXXXXXXXX   @ %%%%%%%%%%%%%%%%%% &**;;** %%%%%%%%%%%%%%%XX ",
"XX%%%%==%===----- ;;;;;;&   .XXXXXXXXXXXXXXXX.   O %%%%%%%%%%%%%%%%%% &;;;;;; %%%%%%%%%%%%%%%XX ",
"%%%%%%%%%%%%%%%%% ::;;;;&                        @ XX%%%%%%%%%%%%%%XX &;;;;:: %%%%%%%%%%%%%%%%% ",
"%%%%%%%%%%%%%%%%% ::;;;;&                        @ XX%%%%%%%%%%%%%%XX &;;;;:: %%%%%%%%%%%%%%%%% ",
"%%%%%%%%%%%%%%%%% ::;;;;&                        O                    &;;;;:: %%%%%%%%%%%%%%%%% ",
"%%%%%%%%%%%%%%%%% ;;;;;;&   X%%%%%%%%%%%%%%%%%XX O                    &;;;;;; %%%%%%%%%%%%%%%++ ",
"%%%%%%%%%%%%%%%%% ;;;;;;&   X%%%%%%%%%%%%%%%%%XX O                    &;;;;;; %%%XXX%%X%%       ",
"%%%%%%%%%%%%%%%%% **;;**&   %%%%%%%%%%%%%%%%%%%% O   XXXXXXXXXXXXXXXX &**;;** %%%XXX%%X%%       ",
"%%%%%%%%%%%%%%%%% &&&&&&o   X%%%%%%%%%%%%%%%%%XX O   .XXXXXXXXXXXXX.. o&&&&&& %%%%%%==%===%%%%% ",
"XX%%%%%%%%%%%%%%%                                                             %%%%%%%%%%%%%%%XX ",
"XX%%%%%%%%%%%%%%%                                                             %%%%%%%%%%%%%%%XX ",
"                                                                                                ",
"%%%%%%%%%%%%%%%%%%%%%XX XX%%%%==%=====----===%%%%%%%%%%%%%%%%%%%%%%%%XX XX%%%%==%=====----===%%%",
"%%%%%%%%%%%%%%%%%%%%%XX XX%%%%==%=====----===%%%%%%%%%%%%%%%%%%%%%%%%XX XX%%%%==%=====----===%%%",
"%%%%%%%%%%%%%%%%%%%%%%% %%%%%%%%%%%%%%%%%%%%%%%%%%%%%%%%%%%%%%%%%%%%%%% %%%%%%%%%%%%%%%%%%%%%%%%",
"%%%%%%XXXXX%%%X%%%      %%%%%%%%%%%%%%%%%%%%%%%%%%%%%%XXXXX%%%X%%%      %%%%%%%%%%%%%%%%%%%%%%%%",
"%%%%%%XXXXX%%%X%%%      %%%%%%%%%%%%%%%%%%%%%%%%%%%%%%XXXXX%%%X%%%      %%%%%%%%%%%%%%%%%%%%%%%%",
"%%%%%%%%=%%%%%===%==%++ %%%%%%%%%%%%%%%%%%%%%%%%%%%%%%%%=%%%%%===%==%++ %%%%%%%%%%%%%%%%%%%%%%%%",
"%%%%%%%%%%%%%%%%%%%%%%% %%%%%%%%%%%%%%%%%%%%%%%%%%%%%%%%%%%%%%%%%%%%%%% %%%%%%%%%%%%%%%%%%%%%%%%",
"%%%%%%%%%%%%%%%%%%%%%%% %%%%%%%%%%%%%%%%%%%%%%%%%%%%%%%%%%%%%%%%%%%%%%% %%%%%%%%%%%%%%%%%%%%%%%%",
"%%%%%%%%%%%%%%%%%%%%%%% %%%%%%%%%%%%%%%%%%%%%%%%%%%%%%%%%%%%%%%%%%%%%%% %%%%%%%%%%%%%%%%%%%%%%%%",
"%%%%%%%%%%%%%%%%%%%%%XX XX%%%%%%%%%%%%%%%%%%%%%%%%%%%%%%%%%%%%%%%%%%%XX XX%%%%%%%%%%%%%%%%%%%%%%",
"%%%%%%%%%%%%%%%%%%%%%XX XX%%%%%%%%%%%%%%%%%%%%%%%%%%%%%%%%%%%%%%%%%%%XX XX%%%%%%%%%%%%%%%%%%%%%%"
};
