/* XPM */
static char *_d8db675318e4c72a55f2f6f7d9cc350dWS8tawNFIht49KO[] = {
/* columns rows colors chars-per-pixel */
"96 96 70 1 ",
"  c #3F3851",
". c #25667E",
"X c #765657",
"o c #7A5656",
"O c #765856",
"+ c #77575B",
"@ c #7B555A",
"# c #755959",
"$ c #7A5859",
"% c #755662",
"& c #7C5362",
"* c #725862",
"= c #80525D",
"- c #8F6676",
"; c #946473",
": c #9E767E",
"> c #AB6F77",
", c #AD6F7A",
"< c #A67475",
"1 c #A97177",
"2 c #A3747C",
"3 c #AA717A",
"4 c #997881",
"5 c #A27481",
"6 c #298A91",
"7 c #37AB9C",
"8 c #48C38A",
"9 c #AC8387",
"0 c #A6858E",
"q c #A9858B",
"w c #BF978F",
"e c #BE9694",
"r c #BC9893",
"t c #B79798",
"y c #BC9699",
"u c #BA9899",
"i c #B897A0",
"p c #8CA9B5",
"a c #C3958F",
"s c #C49491",
"d c #C59394",
"f c #C29496",
"g c #C39597",
"h c #C59497",
"j c #C89194",
"k c #CDAFAD",
"l c #D4AFA7",
"z c #D9ACA7",
"x c #D2AFA9",
"c c #D4AFA9",
"v c #D4AEAD",
"b c #D8ABA8",
"n c #D9ACA9",
"m c #CEB0AE",
"M c #D2B0A7",
"N c #D1B0A9",
"B c #D3B0AA",
"V c #D5B0AA",
"C c #CFAFB0",
"Z c #CEB2B1",
"A c #D0B0B1",
"S c #91EA9C",
"D c #E4C6BE",
"F c #B2D3CF",
"G c #DFC7C5",
"H c #DDC8C5",
"J c #E3C6C0",
"K c #E4C5C0",
"L c #E0C6C5",
"P c #F0F7F4",
/* pixels */
"@@@@++@+########+####+@@++@@++@@++@++#++++@@@@%%&@@@++@+########+####+@@++@@++@@++@++#++++@@@@%%",
"2:yyyyyymmmkmmmyyuCmuyyyyyyyyyyyyyyyyuyyyyyyy:4+::yyyyyymmmkmmmyyuCmuyyyyyyyyyyyyyyyyuyyyyyyy:4%",
"<<fffsfelMccxccefscceffsssffffffffffffffssfff2:@2<fffsfelMccxccefscceffsssffffffffffffffssfff2:@",
"ddssssssawaswwssssssssssaassssdddddddddddsssfyu@fdssssssawaswwssssssssssaassssdddddddddddsssfyu+",
"dssssssssaaasssssssssss           1113311dse+**+essssssssaaass           sssss11j11113311dse+***",
"sssssssssaaasssssssssss           1111111dse+**+essssssssaaass           sssss11d<1111111dse+***",
"ssssssssassssssssssssss           sbnbnssdssf9q@fsssssssasssss           sssssddbssbnbnssdssf9q+",
"sssssssssssssssssssssss           sswwesssssafy@fsssssssssssss           ssssssssssswwesssssafy@",
"ssssssaasssssssassss   SSSSSSS8888   saasssssfy@fsssssaasss   SSSSSSS8888   ssssssssssaasssssfy@",
"ddssssaassssssssssss   SSSSSSS8888   saasssssfy@ddssssaasss   SSSSSSS8888   ssssssssssaasssssfy@",
">1dsssssssssssssssaa   SSSSSSS8888   sasssssd<2=21dssssssss   SSSSSSS8888   ssssssssssasssssd<2@",
"32fesfffffffffffssss   8888777                                    7777777   fseeffeefeeeffffd22@",
"@@+Oo@@@o@@@@@@@@@@@   8888777                                    7777777   @o++@@+OXO+Oo@@@@@@@",
"mmmmAuyyyyyyyyyyuyyy   8888777                                    7777777   yuCZtCZmmmmmCuyyyyuy",
"xxcccefsssffsfssffff   8888777                                    7777777   fsccecccMMcVvesffffe",
"wwsssssaasdddddddsss          77778888888SSSSSSS8888SSS88888887777          ssssssaawwssssaassss",
"ssssssssssd111j<<dse          77778888888SSSSSSS8888SSS88888887777          ssaassssssssssssssss",
"ssssssssssd<11d<<ddf          77778888888SSSSSSS8888SSS88888887777          ssaassssssssssssssss",
"sssssssssznsnnnssdsff9q    777888888888888888888888888888888888888666    sssasssssssssssaassssss",
"sssssssssssswwssssssdfy    777888888888888888888888888888888888888666    sssaaasssssssssaassssss",
"aassssssssssssassssssfy    777888888888888888888888888888888888888666    sssssssssssaaaassssssss",
"ssssssssssassssssssssfy    777888888888888888888888888888888888888666    dssssssssssaassssssssss",
"asssssssssssaassassa       8888888   7777888    77778888888   8888666    1dssssssssssassssssaass",
"ssfffeeesseeeeeeeeff       8888888   7777888    77778888888   8888666    2ffffffffffffffffffssff",
"@@@@@o+OooOO######@@       8888888   7777888    77778888888   8888666    @@o@@@@@@@@@o@@@@@@@@@@",
"2:yyyuCmummmGHGGLZuy       8888888   7777888    77778888888   8888666    yyyyyyyyyyyyyyyyyyyy:4%",
"2<fffecceccxKKJK    PPP    7777777              7777777    PPP    666    fssfffffsssfffffffff2:@",
"jddsssssssseerrr    PPP    7777777              7777777    PPP    666    saassssasaassssssssdfy@",
"ddssssssssssssss    PPP    7777777              7777777    PPP    666    sssssassssssssssasssfy+",
"ssssssssssssssss    PPPPPPP       SSSSSSS888SSSS       PPPPPPP    666    sssssssssddssssssfffey+",
"sssssssssssssssa    PPPPPPP       SSSSSSS888SSSS       PPPPPPP    666    sssssssdddddadsfeyyyq0%",
"ssssssssssaassss    PPPPPPP       SSSSSSS888SSSS       PPPPPPP    666    ssssassd<1<ss<seo@+@+%%",
"ssssssssssssssss    PPPPPPP       SSSSSSS888SSSS       PPPPPPP    666    sssssasd<1<as<seo@@+++*",
"ddssssssssssssss    FFFPPPPppp       8888888        pppPPPPFFF    666    sssssaasdddzzsncveyyyi%",
">1dsssssssssssaa    FFFPPPPppp       8888888        pppPPPPFFF    666    sssssssssdsssssssssd2:@",
"1<hfffffsffffsss    FFFPPPPppp       8888888        pppPPPPFFF    666    ffffseeffeeeeeeeeesf<:@",
"@@@@oo@@@@@@@oooo@@@   pppp       77788888887777       pppp   88888888888   @o++oo+++######O@@@@",
"yyyyyyyyyyyyyyyeuyyy   pppp       77788888887777       pppp   88888888888   yuCCuCZkZZLGHGZkmuyy",
"fffsssssfffffsfsffff   pppp       77788888887777       pppp   88888888888   feccecccxBKJJDxcceff",
"ssssaaddddddssddssee   pppp       77788888887777       pppp   88888888888   sssssssewrrrrrwassss",
"ssaasd11311ddd<d    888                                    77788887778888888    ssssssssssssssss",
"ssaasd11111dds<d    888                                    77788887778888888    ssssssssssssssss",
"ssssasddbsddssnn    888                                    77788887778888888    ssaaasssssssssss",
"ssssaassssssssss    888    ...666666666666666666666666677778888888   7777777    ssaassssssssssss",
"ssssssssssssssss    888    ...666666666666666666666666677778888888   7777777    ssssssssssssssss",
"ssssssssssssssss    888    ...666666666666666666666666677778888888   7777777    ssssssssssssssss",
"ssssssssssssssss    888    ...666666666666666666666666677778888888   7777777    ssssasssssssssss",
"ssfffsfsseeefsfsssef       666666677788888888888888888888888888888666       ffssffffsfffssfffffe",
"@@@@@o@o@O+O+O@oooO@       666666677788888888888888888888888888888666       @@@o@@@@@$@@oo@o@@@+",
"2:yyyyyymmmkmmmyyumm       666666677788888888888888888888888888888666       yyyyyyyyyuyyyyyyy:4%",
"<<fffsfelMccxccesecc       666666677788888888888888888888888888888666       ffffffsfffffssfff2:@",
"ddssssssawaswwsssssssss    66688888888888SSS8888SSSSSSS88888887777...    sssssdddddddddddssffyu+",
"dssssssssaaassssssssssa    66688888888888SSS8888SSSSSSS88888887777...    sssss11j11113311dse+***",
"sssssssssaaassssssssssa    66688888888888SSS8888SSSSSSS88888887777...    sssss11j<1111111dse+***",
"ssssssssassssssssssssssssss   8888777                      6666666   assssssssddbssbnbnssdssf9q+",
"sssssssssssssssssssssssssss   8888777                      6666666   assssssssssssaawwesssssafy@",
"ssssssaassssssaasssssssssss   8888777                      6666666   sssssssssaassssssaasssaafy@",
"ddssasaasssssssssssssssasss   8888777                      6666666   sssssssssaassssssaasssaafy@",
">1dssssssssssssssssssssssss   7777   ,,,3,,33;;&;;3,,,,,,,,   ....   sssssssssssssssssasssssd<2@",
"32fesffffffffffsssfffffffff   7777   33133333;-&;;333333333   ....   ffffsffffeeffeefeeeffffd22@",
"@@+Oo@@@@@@o@@@@@o@@@@@@@@@   7777   =======@@&&&@=@=====@=   ....   @@@@@@@@@++@@+OXO+Oo@o@@@@@",
"mmmmAuyyyyyyyyyyuyyyy:4+::yyuy       2225522225552222552522222       :4+::yyyuCmtCZmmmmmCuyyyyuy",
"xxccceffffssssfffffff2:@2<ffff       3333333333331333311333333       2:@2<fffeccecccMMcVvefffffe",
"wwssssssssdddddddsssfyu@ddssss       131313131313131313131>111       fy@ddssssaassaawwssssssssss",
"ssssssssssd111j<<dse@**+esssss       ddddddddddddddddddsdddddd       fy@fssassssssssssssssssssss",
"ssssssssssd<11d<<ddf+**+esssssaasssssssssssssssssssassaassssssaasssffey@fsaassssssssssssssssssss",
"sssssssssznsnnnssdsff9q@fsssssssssssssssaasssssssaaaaasssss<<<s<<fo@@@+@fsssssssssssssssaassssss",
"sssssssssssswwssssssdfy@fsssssssssaassssaaaasssssaaaasssslnsnnnssfeyyq0@fsssssssssssssssaassssss",
"aassssssssssssassssssfy@sasssssssssassssasssssssssssssaaszzsllnssssff9q@fsssssasssssssssssssssss",
"ssssssssssassssssssssfy@ddssssssssssasssaassssssssssssaasssswessssssddy@ddssssssssssasssssssssss",
"asssssssssssaassassad<2=21dssssssssssassssssaassssssssssssssssssssssd<2=11dsssasssssasssssssaass",
"ssfffeeesseeeeeeeefff22@22fffffffffffsffffffssffsffffseefseeeeeeeefff2:@32ffffssffffssffffffssff",
"@@@@@o+OooOO######@@@++@@@o@@@o@@@@@@o@@@@@@@@@@@@@@@o+O@o+#######@@@++@@@@@@@@@@@@@@o@@o@@@@@@@",
"2:yyyuCmummmGHGGLZuyCmmuyyyyyyyyyyyyyyyyyyyyy:4%::yyyummummZGHGGLZuyCmmuuyyyyyyyyyyyyyyyyyyyy:4%",
"2<fffecceccxKKJKKBeeccceffffffffsffsfsfffffff2:@2<fssecceccxJJJJKBeeccceefffffffffssfffffffff2:@",
"jddsssssssseerrreessawssssssasssasssssssssssdfy@dddsaassssserrrrressawssssaassssasssssssssssdfy@",
"ddsssssssssssssssssssssssssssssasssssssssasssfu@fdssssssssssssssssssssssssssaasssssasssssasssfy+",
"ssssssssssssssssssssssssssssssasssddssssssfffeu@fsssssssssssssssssssssssssssaassssddssssssfffey+",
"sssssssssssssssaasssssssssssssasdddddsdsfeyyyq0@fssssssssssssssaaassssssssssssssdddddsdsfeyyyq0%",
"ssssssssssaassssssssssssssssssssd<1<ss<seo@+@+%+essssssssssassssaassssssssssssssd<1<ss<seo@+@+%%",
"sssssssssssssssssssssssassssssssd<1<sa<seo@@++++esssssssssssssssssssssaassssssssd<1<ss<seo@@+++*",
"ddssssssssssssssssssssaassssssssddddzzsncveyyyi@fdssssssssssssssssssssaassssssssddddzzsncveyyyi%",
">1dsssssssssssaassssssssssssssssssdsasssssssd2:@11dsssssssssssaassssssssssssssssasdsssssssssd2:@",
"1<hfffffsffffssssffffffffffffseeffeeeeeeeeesf<:@3<hfffffsffffssssffffffffffffseesseeeeeeeeesf<:@",
"@@@@oo@@@@@@@oooo@@@@@@@@@@@@oOO@o+++######O@@@@@@@@oo@@@@@@@oooo@@@@@@@@@@@@oOOoo+++#O####O@@@@",
"yyyyyyyyyyyyyyyeuyyyy:4+::yyyummuCZkZZLGHGZkmuyyyyyyyyyyyyyyyyyeuyyyy:4+::yyyummuCZkZZLGHGZkmuyy",
"fffsssssfffffsfsfsssf2:@2<fffeccecccxBKJJDxccefffffsssssfffffsfsfsssf2:@2<fffeccecccxBKJJDxcceff",
"ssssaaddddddssddsseeeyu@ddsssssssssewrrrrrwassssssssaaddddddssddsseeeyu@ddsssssssssewrrrrrwassss",
"ssaasd11311ddd<ddf+****+esssssssssssssssssssssssssaasd11311ddd<ddf+****+esssssssssssssssssasssss",
"ssaasd11111dds<dse+****+esssssssssssssssssssssssssaasd11111dds<dse+****+esssssssssssssssssssssss",
"ssssasddbsddssnnzevve9q@fsssssssssaassssssssssssssssasddbsddssnnzecve9q@fsssssssssaassssssssssss",
"ssssaasssssssssssssssfy@fsssssssssaassssssssssssssssaasssssssssssssasfy@fsssssssssaassssssssssss",
"ssssssssssssssssssssssy@fsssssaassssssssssssssssssssssssssssssssssssssy@fsssssaassssssssssssssss",
"ssssssssssssssssassssfy@fdssssaassssssssssssssssssssssssssssssssassssfy@fdssssaassssssssssssssss",
"ssssssssssssssssssssd<2@21dsssssssssssssssssssssssssssssssssssssssssd<2@21dsssssssssssssssssssss",
"ssssssssasssssssssssd22=31dsssssssssssssssssssssssssssssasssssssssssd22=31dsssssssssssssssssssss"
};
