/* XPM */
static char *fin[] = {
/* columns rows colors chars-per-pixel */
"192 48 10 1 ",
"  c #6E5967",
". c #A23131",
"X c #AC3232",
"o c #C73D3D",
"O c #D13F3F",
"+ c #926475",
"@ c #AD707B",
"# c #B77F83",
"$ c #C39490",
"% c #D1B1A5",
/* pixels */
"                                                                                                                                                                                                ",
"                                                                                                                                                                                                ",
"                                                                                                                                                                                                ",
"                                                                                                                                                                                                ",
"                                                                                                                                                                                                ",
"                                                                                                                                                                                                ",
"                                  ++@@@@  @@@@++                  ++@@@@@@@@@@++              XX  ++@@@@  @@@@++                  ++@@@@@@@@@@++                  ++@@@@  @@@@++                ",
"                                  @@@@@...@@@@@@                  @@@@@@@@@@@@@@             .XXX @@@@@@  @@@@@@                  @@@@@@@@@@@@@@                  @@@@@@  @@@@@@                ",
"                                  @@@@.XXX.@@@@@                  @@@@@@@@@@@@@@             .XXo @@@@@@  @@@@@@                  @@@@@@@@@@@@@@ XXo              @@@@@@  @@@@@@                ",
"        ++@@@@++XX.+@@@@@@@@@@++  @@@.XXoXX.@@@@  ++@@@@@@@@@@++  @@@@@@@@@@@@@@  ++@@@@@@@@@.XoOo@@@@@@@@@@@@@@  ++@@@@@@@@@@++  @@@@@@@@@@@@@@XXoOo@@@@@@@@@++XX@@@@@@@@@@@@@@  ++@@@@@@++    ",
"        @@@@@@@XXXX.@@@@@@++@@@@  @@@.XoOoX.@@@@  @@@@@@@@@@@@@@  @@@@@@@@@@@@@@  @@@@@@@@@@@.XoOo@@@@@@@@@@@@@@  @@@@@@@@@@@@@@  @@@@@@@@@@@@@@.XoOo@@@@@@@@@@.XoX@@@@@++@@@@@@  @@@@@@@@@@    ",
"        @@@@@@@XXXX..@@@@@++@@@@  @@@.XoOo.@@@@@  @@@@@@@@@@@@@@  @@@@@@@@@@@@@@  @@@@@@@@@@@@.oOo@@@@@@@@@@@@@@  @@@@@@@@@@@@@@  @@@@@@@@@@@@@@.XoOOo@@@@@@@@@.oOo@@@@@++@@@@@@  @@@@@@@@@@    ",
"        @@@@@@@XXXXXX..@@@++@@@@  @@.XoOOo.@@@@@  @@@@@@@@@@@@@@  @@@@@@@@@@@@@@  @@@@@@@@++@@.oOo@@@@@@++@@@@@@  @@@@@@@@@@@@@@  @@@@@@@@@@@@@@.XXoOo@@@@++@@@.oOo@@@@@++@@@@@@  @@@@@@@@@@    ",
"        @@@@@@@@XXXXXX.@@@@@@@@@  @.XooOoX.@@@@@  @@@@@@@@@@@@@@  @@@@@@@@@@@@@@  @@@@@@@@@@@@.XoO@@@@@@++@@@@@@  @@@@@@@@@@@@@@  @@@@@@@@@@@@@@..XoOo@@@@@@@@@.oOo@@@@@@@@@@@@@  @@@@@@@@@@    ",
"        @@@@@@@@ XXXXXX@@@@@@@@@  @.oOOOX.@@@@@@  @@@@@@@@@@@@@@  @@@@@@@@@@@@@@  @@@@@@@@@@@@..oO@@@@@@++@@@@@@  @@@@@@@@@@@@@@  @@@@@@@@@@@@@@ .XoOo@@@@@@@@@ooOo@@@@@@@@@@@@@  @@@@@@@@@@    ",
"        @@@@@@@@  XXXXX.@@++@@@@  ..oOoo.@@@@@@@  @@@@@@@@@@@@@@  @@@@@@@@@@@@@@  @@@@@@@@++@@..oO@@@@@@@@@@@@@@  @@@@@@@@@@@@@@  @@@@@@@@@@@@@@ .XXoOo@@@++@@@ooOo@@@@@@@@@@@@@  @@@@@@@@@@    ",
"        @@@@@@@@  @XXXX..$@@$$## .XXOoXX.$$$$$##  ##$$$$$$$$$$##  ##$$$$$$$$$$##  ##$$$$$$@@$$..oOO#$$$$$$$XX$##  ##$$$$$$$$$$##  @@@@@@@@@@@@@@ ..XoOo@@@++@@@ooOOo@@@@@@@@@@@@  @@@@@@@@@@    ",
"        @@@@@@@@  @@XXXX..@@$$##.XoOoXX.$$$$$$##  ##$$$$$$$$$$##  ##$$$$$$$$$$##  ##$$$$$$@@$$..XoO#$$$$$$XXXX##  ##$$$$$$$$$$##  @@@@@@@@@@@@@@  .XoOo@@@++@@@.XoOo@@@@@@@@@@@@  @@@@@@@@@@    ",
"        @@@@@@@@  @@XXXXX..@$$$.XoOOXX.$$$$$$$$$  $$$$$$$$$$$$$$  $$$$$$$$$$$$$$  $$$$$$$$@@$$$.XoO$$$$$$$XXXX$$  $$$$$$$$$$$$$$  ##$$$$$$$$$$##  .XoOo$$$@@$$#.XoOo$$$$$$$$$$##  $$##@@@@@@    ",
"        @@@@@@@@  @@@XXXXX..$$$.oOOoX.$$$$$$$$$$  $$$$$$$$$$$$$$  $$$$$$$$$$$$$$  $$$$$$$$$$$$$.XoOo$$$$$$XXXX$$  $$$$$$$$$$$$$$  $$$$$$$$$$$$$$  ..oOo$$$$$$$$..oOo$$$$$$$$$$$$  $$$$@@@@@@    ",
"        @@@@@@@@  @@@@XXXXX.$$$.XooX.$$$$$$$$$$$  $$$$$$$$$$$$$$  $$$$$$$$$$$$$$  $$$$$$$$$$$$$.XoOo$$$$$$$XX$$$  $$$$$$$$$$$$$$  $$$$$$$$$$$$$$  $.oOo$$$$$$$$$.oOOo$$$$$$$$$$$  $$$$@@@@@@    ",
"        @@@@@@@@  @@@@$XXXX..$.XXXX.$$$$$$$$$$$$  $$$$$$$$$$$$$$  $$$$$$$$$$$$$$  $$$$$$$$  $$$$.XoO$$$$$$$$$$$$  $$$$$$...$$$$$  $$$$$$$$$$$$XXX...oOOo$$  $$$$.XoOo$$$$$$$$$$$  $$$$@@@@@@    ",
"        @@@@@@@@  ++@@#XXXXX..XXXXX.$$$$$$$$$$$$  @@$$$$$$$$$$@@  $$$$$$$$$$$$$$  @@$$$$##  $$@@.XoO$$$$$$$$$$$$  @@$$$.X...XX@@  %%$$$$$$XX$XXXXXXXXoOo##  $$@@..Xoo$$$$$$$$$$$  @@$$@@@@++    ",
"        @@@@@@@@  ++@@##XXXXXXXXXX.%$$$$$$$$$$$$  @@$$$$$$$$$$@@  $$$$$$$$$$$$$$  @@$$$$##  $$@@.XoOo$$$$$$$$$$$  @@$$.XXXXXXXX@  %%$$$$$XXXXXXXXXXXXoOo##  $$@@ .XXXX$$$$$$$$$$  @@$$@@@@++    ",
"        @@@@@@@@        XXXXXXXXX.$$$$$$$$$$XX$$                  $$$$$$$$$$$$$$     XXXXX      .XoOo$$$$$$Xoo$$      .XXXXXXXoX  %%$$$$XXXXXXXXXXXXXoOo         ..XXX$$$$$$$$$$                ",
"        @@@@@@@@  @@@@##..XXXXXXX.%%$$$$$$$XXXX$  @@$$##  ##$$@@XXX$$$$$$$$$$$$$  @@XXXXXXXXXX@@ .ooX$$$$$.XoOo$  @@$$.XXXXXXoOo  %%$$$$XXXX..XX XXXXoOOo#$$$$@@  .XX$$$$$$$$$$$  @@$$  @@++    ",
"        @@@@@@@@  @@@@##$..XXXXX. %%$$$$$$XXXXXXoX@@$$#XXX##$$@XXXoX$$$$$$$$$$$$  @.XXXXXXXXXXX@ .XXX$$$$$.XoOo$  @@$.XXXXX XoOo  %%$$$$XXXX.$$$  @XXXoOo#$$$$@@  %%$$$$$$$$$$$$  @@$$  @@++    ",
"        @@@@@@@@  @@@@$$$$..XXXX. %%$$$$$$XXXXXoOoX$$$XXXXX$$$$XXoOo$$$$@@%%$$$$  $.XXXXXXXXXXX...XXX$$$$$.XoOo$  $$$..XXXXXXoOo  $$$$$XXXXX.$$$  $$XXoOo$$$$$$$  %%$$$$$$$$$$$$  $$$$  @@@@    ",
"        @@@@@@@@  @@@@$$$$$..XXX. $$$$$$$XXXXXXoOOoX$$XXXXX%$$$$XoOo$$$$$$%%$$$$  $.XXX.XXXXXXXXXXXXX$$$$$.XXoO$  $$$$.XXXXXXXoX  $$$$$XXXXX.$$$  $$XXoOo$$$$$$$  $$$$$$$$$$$$$$  $$$$  @@@@    ",
"        @@@@@@@@  @@@@$$$$$.XXXX. $$$$$$$XXXXXXXoOOoX$XXXX.%$$$$XoOo$$$$$$%%$$$$  $.XXX.....XXXXXXXXX$$$$$.XXoO$  $$$$..XXXXXXX$  $$$$$XXXXX.$$$  $$XXoOo$$$$$$$  $$$$$$$$$$$$$$  $$$$  @@@@    ",
"        @@@@@@@@  @@@@##$$$.XXXX. ##$$$$$XXXX.##XoOoX$XXXX.%$$##XoOo$$$$@@$$$$##  #.XXX.$$$$$XXXXXXXXX$$$$$.XoO#  ##$$$..XXXXX##  ##$$XXXXXX.$##  ##XXXoX$$$$$##  ##$$$$$$$$$$##  $$##@@@@@@    ",
"        @@@@@@@@  @@@@@@@@@.XXXX. @@@@@@@XXXX.@@.oOOoXXXXX.@@@@@XoOo@@@@++@@@@@@  @.XXXX@@@@@@XXXXXXXXX@@@@.XoOo  @@@@@..XXXX@@@XXXXXXXXXXXXX..@  @@XXXXX@@@@@@@  @@@@@@@@@@@@@@  @@@@++@@@@    ",
"        @@@@@@@@  @@@@@@@@@..XXXX.@@@@@@@XXXX.@@.oOoXXXXXXX.@@@@XXoX@@@@++@@@@@@  @.XXXX@@@@@@XXXXXXXXX@@@@.XXoX  @@@@@@..XXXXXXXXXXXXXXXXXXXX....@XXXXXXX@@@@@@  @@@@@@@@@@@@@@  @@@@++@@@@    ",
"        @@@@@@@@  @@@@@@@@@@.XXXX.@@@@@@@XXXX.@.XXoXXXXXXXX.@@.XXXXX@@@@++@@@@@@  @..XXXX@@@@@@XXXXXXXX@@@@.XXXX  @@@@@@@..XXXXXXXXXXXXXXXXXXXXXX...XXXXXX@@@@@@  @@@XX@@@@@@@@@  @@@@++@@@@    ",
"        @@@@@@@@  @@@@@@@@@@..XXX.@@@@@@@XXXXX.XXXXXX@@XXXX..@.XXXXX@@@@@@@@@@@@  @@.XXXX@@@@@XXXXX@XX@@@@@@.XXX  @@@@@@@..XXXXXXXXXXXXX@@XXXXXXXXXXXXXXXX@@@@@@  @@.XXX@@@@@@@@  @@@@@@@@@@    ",
"        @@@@@@@@  @@@@@@@@@@@.XXXX.@@@@@@XXXXX.XXXXX@@@XXXXXX.XXXXX@@@@@@@@@@@@@  @@..XXXX..XXXXXXX@@@@@@@@@.XXX  @@@@@@@@........@@@@@@@@@XXXXXXXXXXXXXXX@@@@@@  @@.XXX@@@@@@@@  @@@@@@@@@@    ",
"        @@@@@@@@  @@@@@@@@@@@.XXXX.@@@@@@@XXXXXXXXX@@@@.XXXXXXXXXXX@@@@@++@@@@@@  @@@.XXXXXXXXXXXXX@@@@@@@@@@..@  @@@@@@@@@@@@@@  @@@@@@@@@@XXXXXXX....XXXX@@@@@  @@...@@@@@@@@@  @@@@@@@@@@    ",
"        ++@@@@++  ++@@@@@@@@@..XXX.@@@@@@@XXXXXXXXX+@@@.XXXXXXXXXX@@@@@@@@@@@@@@  ++@..XXXXXXXXXXX@@@@@@@@@@@@@@  ++@@@@@@@@@@++  @@@@@@@@@@@@@@  +..@..XXX@@@++  @@@@@@@@@@@@@@  ++@@@@@@++    ",
"        ++@@@@++  ++@@@@@@@@@@.XXXX.@@@@@@XXXXXXXX++@@@..XXXXXXXX.@@@@@@@@@@@@@@  ++@@..XXXXXXXX  @@@@@@@@@@@@@@  ++@@@@@@@@@@++  @@@@@@@@@@@@@@  ++@@@..XX@@@++  @@@@@@@@@@@@@@  ++@@@@@@++    ",
"                              XXXXX.@@@@@@@XXXXXX       ...XXXXX. @@@@@@  @@@@@@       .XX.....   @@@@@@@@@@@@@@                  @@@@@@  @@@@@@        ..        @@@@@@@@@@@@@@                ",
"                              .XXXX.@@@@@@@@@@++           .....  ++@@@@  @@@@++        ...       ++@@@@@@@@@@++                  ++@@@@  @@@@++                  ++@@@@@@@@@@++                ",
"                               .XX.+@@@@@@@@@@++                  ++@@@@  @@@@++                  ++@@@@@@@@@@++                  ++@@@@  @@@@++                  ++@@@@@@@@@@++                ",
"                                ..                                                                                                                                                              ",
"                                                                                                                                                                                                ",
"                                                                                                                                                                                                ",
"                                                                                                                                                                                                ",
"                                                                                                                                                                                                ",
"                                                                                                                                                                                                "
};
