/* XPM */
static char *HUD[] = {
/* columns rows colors chars-per-pixel */
"192 48 32 1 ",
"  c #3F3851",
". c #25667E",
"X c #6E5967",
"o c #E44B3B",
"O c #B9355C",
"+ c #926475",
"@ c #AD707B",
"# c #DA4949",
"$ c #E36254",
"% c #F07860",
"& c #EF895A",
"* c #CD8674",
"= c #F69972",
"- c #F6C27D",
"; c #5F7D93",
": c #4F6DC0",
"> c #B77F83",
", c #298A91",
"< c #37AB9C",
"1 c #768EA1",
"2 c #5987C6",
"3 c #6198CC",
"4 c #68B8D3",
"5 c #8CA9B5",
"6 c #C39490",
"7 c #DEB19C",
"8 c #D1B1A5",
"9 c #ECD4BE",
"0 c #FFEFA9",
"q c #A5C2C7",
"w c #90E3E4",
"e c #F2F7F6",
/* pixels */
"XXXXXXXXXXXXXXXXXXXXXXXXXXXXXXXXXXXXXXXXXXXXXXXXXXXXXXXXXXXXXXXXXXXXXXXXXXXXXXXXXXXXXXXXXXXXXXXXXXXXXXXXXXXXXXXXXXXXXXXXXXXXXXXXXXXXXXXXXXXXXXXXXXXXXXXXXXXXXXXXXXXXXXXXXXXXXXXXXXXXXXXXXXXXXXXX",
"XXXXXXXXXXXXXXXXXXXXXXXXXXXXXXXXXXXXXXXXXXXXXXXXXXXXXXXXXXXXXXXXXXXXXXXXXXXXXXXXXXXXXXXXXXXXXXXXXXXXXXXXXXXXXXXXXXXXXXXXXXXXXXXXXXXXXXXXXXXXXXXXXXXXXXXXXXXXXXXXXXXXXXXXXXXXXXXXXXXXXXXXXXXXXXXX",
"XXXXXXXXXXXXXXXXXXXXXXXXXXXXXXXXXXXXXXXXXXXXXXXXXXXXXXXXXXXXXXXXXXXXXXXXXXXXXXXXXXXXXXXXXXXXXXXXXXXXXXXXXXXXXXXXXXXXXXXXXXXXXXXXXXXXXXXXXXXXXXXXXXXXXXXXXXXXXXXXXXXXXXXXXXXXXXXXXXXXXXXXXXXXXXXX",
"XXXXXXXXXXXXXXXXXXXXXXXXXXXXXXXXXXXXXXXXXXXXXXXXXXXXXXXXXXXXXXXXXXXXXXXXXXXXXXXXXXXXXXXXXXXXXXXXXXXXXXXXXXXXXXXXXXXXXXXXXXXXXXXXXXXXXXXXXXXXXXXXXXXXXXXXXXXXXXXXXXXXXXXXXXXXXXXXXXXXXXXXXXXXXXXX",
"XXXXXXXXXXXXXXXXXXXXXXXXXXXXXXXXXXXXXXXXXXXXXXXXXXXXXXXXXXXXXXXXXXXXXXXXXXXXXXXXXXXXXXXXXXXXXXXXXXXXXXXXXXXXXXXXXXXXXXXXXXXXXXXXXXXXXXXXXXXXXXXXXXXXXXXXXXXXXXXXXXXXXXXXXXXXXXXXXXXXXXXXXXXXXXXX",
"XXXXXXXXXXXXXXXXXXXXXXXXXXXXXXXXXXXXXXXXXXXXXXXXXXXXXXXXXXXXXXXXXXXXXXXXXXXXXXXXXXXXXXXXXXXXXXXXXXXXXXXXXXXXXXXXXXXXXXXXXXXXXXXXXXXXXXXXXXXXXXXXXXXXXXXXXXXXXXXXXXXXXXXXXXXXXXXXXXXXXXXXXXXXXXXX",
"XXXXXXXXXXXXXXXXXXXXXXXXXXXXXXXXXX++@@@@XX@@@@++XXXXXXXXXXXXXXXXXX++@@@@@@@@@@++XXXXXXXXXXXXXXXXXX++@@@@XX@@@@++XXXXXXXXXXXXXXXXXX++@@@@@@@@@@++XXXXXXXXXXXXXXXXXX++@@@@XX@@@@++XXXXXXXXXXXXXXXX",
"XXXXXXXXXXXXXXXXXXXXXXXXXXXXXXXXXX@@@@@@XX@@@@@@XXXXXXXXXXXXXXXXXX@@@@@@@@@@@@@@XXXXXXXXXXXXXXXXXX@@@@@@XX@@@@@@XXXXXXXXXXXXXXXXXX@@@@@@@@@@@@@@XXXXXXXXXXXXXXXXXX@@@@@@XX@@@@@@XXXXXXXXXXXXXXXX",
"XXXXXXXXXXXXXXXXXXXXXXXXXXXXXXXXXX@@@@@@XX@@@@@@XXXXXXXXXXXXXXXXXX@@@@@@@@@@@@@@XXXXXXXXXXXXXXXXXX@@@@@@XX@@@@@@XXXXXXXXXXXXXXXXXX@@@@@@@@@@@@@@XXXXXXXXXXXXXXXXXX@@@@@@XX@@@@@@XXXXXXXXXXXXXXXX",
"XXXXXXXX++@@@@++XX++@@@@@@@@@@++XX@@@@@@@@@@@@@@XX++@@@@@@@@@@++XX@@@@@@@@@@@@@@XX++@@@@@@@@@@++XX@@@@@@@@@@@@@@XX++@@@@@@@@@@++XX@@@@@@@@@@@@@@XX++@@@@@@@@@@++XX@@@@@@@@@@@@@@XX++@@@@@@++XXXX",
"XXXXXXXX@@@@@@@@XX@@@@@@@@++@@@@XX@@@@@@++@@@@@@XX@@@@@@@@@@@@@@XX@@@@@@@@@@@@@@XX@@@@@@@@@@@@@@XX@@@@@@@@@@@@@@XX@@@@@@@@@@@@@@XX@@@@@@@@@@@@@@XX@@@@@@@@@@@@@@XX@@@@@@++@@@@@@XX@@@@@@@@@@XXXX",
"XXXXXXXX@@@@@@@@XX@@@@@@@@++@@@@XX@@@@@@++@@@@@@XX@@@@@@@@@@@@@@XX@@@@@@@@@@@@@@XX@@@@@@@@@@@@@@XX@@@@@@@@@@@@@@XX@@@@@@@@@@@@@@XX@@@@@@@@@@@@@@XX@@@@@@@@@@@@@@XX@@@@@@++@@@@@@XX@@@@@@@@@@XXXX",
"XXXXXXXX@@@@@@@@XX@@@@@@@@++      @@     @ @@@@@XX@@@@@@@@@@@@@@XX@@@@@@@@@@@@@@XX@@@@@@@@++@@@@XX@@@@@@++@@@@@@XX@@@@@@@@@@@@@@XX@@@@@@@@@@@@@@XX@@@@@@@@++@@@@XX@@@@@@++@@@@@@XX@@@@@@@@@@XXXX",
"XXXXXXXX@@@@@@@@XX@@@@@@@@@ o&&&-&  &--0- - @@@@XX@@@@@@@@@@@@@@XX@@@@@@@@@@@@@@XX@@@@@@@@@@@@@@XX@@@@@@++@@@@@@XX@@@@@@@@@@@@@@XX@@@@@@@@@@@@@@XX@@@@@@@@@@@@@@XX@@@@@@@@@@@@@@XX@@@@@@@@@@XXXX",
"XXXXXXXX@@@@@@@@XX@@@@@@@@@ &&&&--  --   -0 @@@@XX@@@@@@@@@@@@@@XX@@@@@@@@@@@@@@XX@@@@@@@@@@@@@@XX@@@@@@++@@@@@@XX@@@@@@@@@@@@@@XX@@@@@@@@@@@@@@XX@@@@@@@@@@@@@@XX@@@@@@@@@@@@@@XX@@@@@@@@@@XXXX",
"XXXXXXXX@@@@@@@@XX@@@@@@@@+ &&&&--&---& &00 @@@@XX@@@@@@@@@@@@@@XX@@@@@@@@@@@@@@XX@@@@@@@@++@@@@XX@@@@@@@@@@@@@@XX@@@@@@@@@@@@@@XX@@@@@@@@@@@@@@XX@@@@@@@@++@@@@XX@@@@@@@@@@@@@@XX@@@@@@@@@@XXXX",
"XXXXXXXX@@@@@@@@XX@@@@>>66@ o&&&--&------0- 66>>XX>>6666666666>>XX>>6666666666>>XX>>666666@@66>>XX>>6666666666>>XX>>6666              @@@@@@@@@@XX@@@@@@@@++@@@@XX@@@@@@@@@@@@@@XX@@@@@@@@@@XXXX",
"XXXXXXXX@@@@@@@@XX@@@@>>66@                 66>>XX>>6666666666>>XX>>6666666666>>XX>>666666@@66>>XX>>6666666666>>XX>>6666              @@@@@@@@@@XX@@@@@@@@++@@@@XX@@@@@@@@@@@@@@XX@@@@@@@@@@XXXX",
"XXXXXXXX@@@@@@@@XX@@@@6666 ;111 ;11q qqq q e 666XX6666@@66666666XX66666666666666XX66666666@@6666XX66666666666666XX6666    233444444www  666666>>XX>>666666@@66>>XX>>6666666666>>XX66>>@@@@@@XXXX",
"XXXXXXXX@@@@@@@@XX@@@@6666                   666XX666@XX@6666666XX66666666666666XX66666666666666XX88666666666666XX66    2234444444444www  6666@@XX66666666666666XX66666666666666XX6666@@@@@@XXXX",
"XXXXXXXX@@@@@@@@XX@@@@6666  O#######*77777*  666XX66@X6XX@666666XX66666666666666XX66666666666666XX88666666666666XX66    2234444444444www  666@XX@X66666666666666XX66666666666666XX6666@@@@@@XXXX",
"XXXXXXXX@@@@@@@@XX@@@@6666X ####$%$7 99999  6666XX66@XXXX@666666XX66666666666666XX66666666XX6666XX66666666666666XX66    :::3333333333444  66@X6XX@66666666XX6666XX88666666666666XX6666@@@@@@XXXX",
"XXXXXXXX@@@@@@@@XX++@@>>66X ####%%%999%%%%9 6666XX@@6@XX@66666@@XX66666666666666XX@@6666>>XX66@@XX88666666666666XX@@    :::3333333333444  66@XXXX@@@6666>>XX66@@XX66666666666666XX@@66@@@@++XXXX",
"XXXXXXXX@@@@@@@@XX++@@>>66X O###%%%%%%%  %% 6666XX@@66@@666666@@XX66666666666666XX@@6666>>XX66@@XX88666666666666XX@@    :::2233333333444  666@XX@@@@6666>>XX66@@XX66666666666666XX@@66@@@@++XXXX",
"XXXXXXXX@@@@@@@@XXXXXXXXXXX    #$#%%%=%# %% 6666XXXXXXXXXXXXXXXXXX66666666666666XXXXXXXXXXXXXXXXXX88666666666666XXXX    :::2233333333444  6666@@XXXXXXXXXXXXXXXXXX88666666666666XXXXXXXXXXXXXXXX",
"XXXXXXXX@@@@@@         >66      ##%%%%%==%% 6666XX@@66>>XX>>66@@XX66666666666666XX@@6666666666@@XX88666666666666XX@@66    :::333333444  66666666XX@@66XX>>6666@@XX88666666666666XX@@66XX@@++XXXX",
"XXXXXXXX@@@@@ qeeeqeeq5 6 997*  O $#%%%%%%%  666XX@@66>>XX>>66@@XX66666666666666XX@@6666666666@@XX88666666666666XX@@66    :::333333444  66666666XX@@66XX>>6666@@XX88666666666666XX@@66XX@@++XXXX",
"XXXXXXXX@@@@@ e55555551 6 9997*   ##%$#%%$# 9 66XX666666XX666666XX666666@@886666XX66666666666666XX66666666666666XX666666   ::22333344 66@@886666XX6666XX66666666XX88666666666666XX6666XX@@@@XXXX",
"XXXXXXXX@@@@@ q5q555q51 6 9997*   O ######  9 66XX666666XX886666XX66666666886666XX66666666666666XX66666666666666XX666666   ::22333344 6666886666XX66666666666666XX66666666666666XX6666XX@@@@XXXX",
"XXXXXXXX@@@@@ q51555151 6 9  ***    O# O#O  7 6  X6666@@XX886666XX66666666886666XX66666666666666XX66666666666666XX66666666   ::2244  666668866@@XX66666666666666XX66666666666666XX6666XX@@@@XXXX",
"XXXXXXXX@@@@@ q55555551                        qe >>6@XX@68866>>XX>>6666@@6666>>XX>>6666666666>>XX>>6666666666>>XX>>666666@    ::  >6666@@666@XX@X>>66@@666666>>XX>>6666666666>>XX66>>@@@@@@XXXX",
"XXXXXXXX@@@@@ q55555551   ;;555qqqeqeeeqq555;  5q @@6X6XX+@@@@@@XX@@@@@@++@@@@@@XX@@@@@@@@@@@@@@XX@@@@@@@@@@@@@@XX@@@@@@@@+    ::  @@@@@++@@6X6XX@@@@@++@@@@@@@@XX@@@@@@@@@@@@@@XX@@@@++@@@@XXXX",
"XXXXXXXX@@@@@ q55555551                        ;5 @@6XXXX+@@@@@@XX@@@@@@++@@@@@@XX@@@@@@@@@@@@@@XX@@@@@@@@@@@@@@XX@@@@@@@@++@    X@@@@@@++@@6XXXX@@@@@++@@@@@@@@XX@@@@@@@@@@@@@@XX@@@@++@@@@XXXX",
"XXXXXXXX@@@@@ q55555551 @@@                  @@  X@@@6XX++@@@@@@XX@@@@@@++@@@@@@XX@@@@@@@@@@@@@@XX@@@@@@@@@@@@@@XX@@@@@@@@++@    X@@@@@@++@@@6XX@X@@@@++@@@@@@@@XX@@@@@@@@@@@@@@XX@@@@++@@@@XXXX",
"XXXXXXXX@@@@@ q5q555q51 @@  .,,,,,<<,<,,,,,. @@@XX@@@@66@@@@@@@@XX@@@@@@@@@@@@@@XX@@@@@@@@@@@@@@XX@@@@@@@@@@@@@@XX@@@@@@@@@@@@@@XX@@@@@@@@@@@@66XX@@@@@@@@@@@@@@XX@@@@@@@@@@@@@@XX@@@@@@@@@@XXXX",
"XXXXXXXX@@@@@ q51555151 @@ .,.             , @@@XX@@@@@@@@@@@@@@XX@@@@@@@@@@@@@@XX@@@@@@@@@@@@@@XX@@@@@@@@@@@@@@XX@@@@@@@@@@@@@@XX@@@@@@@@@@@@@@XX@@@@@@@@@@@@@@XX@@@@@@@@@@@@@@XX@@@@@@@@@@XXXX",
"XXXXXXXX@@@@@ 51111111; @@@   @@XX@@@@@@@@@  @@@XX@@@@@@@@@@@@@@XX@@@@@@++@@@@@@XX@@@@@@@@@@@@@@XX@@@@@@@@@@@@@@XX@@@@@@@@@@@@@@XX@@@@@@@@@@@@@@XX@@@@@@@@@@@@@@XX@@@@@@@@@@@@@@XX@@@@@@@@@@XXXX",
"XXXXXXXX++@@@@         @@@@@@@++XX@@@@@@@@@@@@@@XX++@@@@@@@@@@++XX@@@@@@@@@@@@@@XX++@@@@@@@@@@++XX@@@@@@@@@@@@@@XX++@@@@@@@@@@++XX@@@@@@@@@@@@@@XX++@@@@@@@@@@++XX@@@@@@@@@@@@@@XX++@@@@@@++XXXX",
"XXXXXXXX++@@@@++XX++@@@@@@@@@@++XX@@@@@@@@@@@@@@XX++@@@@@@@@@@++XX@@@@@@@@@@@@@@XX++@@@@@@@@@@++XX@@@@@@@@@@@@@@XX++@@@@@@@@@@++XX@@@@@@@@@@@@@@XX++@@@@@@@@@@++XX@@@@@@@@@@@@@@XX++@@@@@@++XXXX",
"XXXXXXXXXXXXXXXXXXXXXXXXXXXXXXXXXX@@@@@@@@@@@@@@XXXXXXXXXXXXXXXXXX@@@@@@XX@@@@@@XXXXXXXXXXXXXXXXXX@@@@@@@@@@@@@@XXXXXXXXXXXXXXXXXX@@@@@@XX@@@@@@XXXXXXXXXXXXXXXXXX@@@@@@@@@@@@@@XXXXXXXXXXXXXXXX",
"XXXXXXXXXXXXXXXXXXXXXXXXXXXXXXXXXX++@@@@@@@@@@++XXXXXXXXXXXXXXXXXX++@@@@XX@@@@++XXXXXXXXXXXXXXXXXX++@@@@@@@@@@++XXXXXXXXXXXXXXXXXX++@@@@XX@@@@++XXXXXXXXXXXXXXXXXX++@@@@@@@@@@++XXXXXXXXXXXXXXXX",
"XXXXXXXXXXXXXXXXXXXXXXXXXXXXXXXXXX++@@@@@@@@@@++XXXXXXXXXXXXXXXXXX++@@@@XX@@@@++XXXXXXXXXXXXXXXXXX++@@@@@@@@@@++XXXXXXXXXXXXXXXXXX++@@@@XX@@@@++XXXXXXXXXXXXXXXXXX++@@@@@@@@@@++XXXXXXXXXXXXXXXX",
"XXXXXXXXXXXXXXXXXXXXXXXXXXXXXXXXXXXXXXXXXXXXXXXXXXXXXXXXXXXXXXXXXXXXXXXXXXXXXXXXXXXXXXXXXXXXXXXXXXXXXXXXXXXXXXXXXXXXXXXXXXXXXXXXXXXXXXXXXXXXXXXXXXXXXXXXXXXXXXXXXXXXXXXXXXXXXXXXXXXXXXXXXXXXXXXX",
"XXXXXXXXXXXXXXXXXXXXXXXXXXXXXXXXXXXXXXXXXXXXXXXXXXXXXXXXXXXXXXXXXXXXXXXXXXXXXXXXXXXXXXXXXXXXXXXXXXXXXXXXXXXXXXXXXXXXXXXXXXXXXXXXXXXXXXXXXXXXXXXXXXXXXXXXXXXXXXXXXXXXXXXXXXXXXXXXXXXXXXXXXXXXXXXX",
"XXXXXXXXXXXXXXXXXXXXXXXXXXXXXXXXXXXXXXXXXXXXXXXXXXXXXXXXXXXXXXXXXXXXXXXXXXXXXXXXXXXXXXXXXXXXXXXXXXXXXXXXXXXXXXXXXXXXXXXXXXXXXXXXXXXXXXXXXXXXXXXXXXXXXXXXXXXXXXXXXXXXXXXXXXXXXXXXXXXXXXXXXXXXXXXX",
"XXXXXXXXXXXXXXXXXXXXXXXXXXXXXXXXXXXXXXXXXXXXXXXXXXXXXXXXXXXXXXXXXXXXXXXXXXXXXXXXXXXXXXXXXXXXXXXXXXXXXXXXXXXXXXXXXXXXXXXXXXXXXXXXXXXXXXXXXXXXXXXXXXXXXXXXXXXXXXXXXXXXXXXXXXXXXXXXXXXXXXXXXXXXXXXX",
"XXXXXXXXXXXXXXXXXXXXXXXXXXXXXXXXXXXXXXXXXXXXXXXXXXXXXXXXXXXXXXXXXXXXXXXXXXXXXXXXXXXXXXXXXXXXXXXXXXXXXXXXXXXXXXXXXXXXXXXXXXXXXXXXXXXXXXXXXXXXXXXXXXXXXXXXXXXXXXXXXXXXXXXXXXXXXXXXXXXXXXXXXXXXXXXX",
"XXXXXXXXXXXXXXXXXXXXXXXXXXXXXXXXXXXXXXXXXXXXXXXXXXXXXXXXXXXXXXXXXXXXXXXXXXXXXXXXXXXXXXXXXXXXXXXXXXXXXXXXXXXXXXXXXXXXXXXXXXXXXXXXXXXXXXXXXXXXXXXXXXXXXXXXXXXXXXXXXXXXXXXXXXXXXXXXXXXXXXXXXXXXXXXX"
};
