/* XPM */
static char *open_door[] = {
/* columns rows colors chars-per-pixel */
"96 96 15 1 ",
"  c #6E5967",
". c #926475",
"X c #AD707B",
"o c #D2727E",
"O c #5D7889",
"+ c #B77F83",
"@ c #728896",
"# c #86A0A8",
"$ c #C39490",
"% c #E28989",
"& c #EDA799",
"* c #D1B1A5",
"= c #DCCABE",
"- c #FBCAAE",
"; c #FAEBCF",
/* pixels */
"                                                                                                ",
"XX$$$$$$*******$$$**$$$$$$$$$$$$$$$$$$$$$$$$$XX XX$$$$$$*******$$$**$$$$$$$$$$$$$$$$$$$$$$$$$XX ",
"XX$$$$$$*******$$$**$$$$$$$$$$$$$$$$$$$$$$$$$XX XX$$$$$$*******$$$**$$$$$$$$$$$$$$$$$$$$$$$$$XX ",
"$$$$$$$$$$$$$$$$$$$$$$$$$$$$$$$$$$$$$$$$$$$$$$$ $$$$$$$$$$$$$$$$$$$$$$$$$$$$$$$$$$$$$$$$$$$$$$$ ",
"$$$$$$$$$$$$$$$$$$$$$$$$$$$$$$XX$XXXXXXXX$$$    $$$$$$$$$$$$$$$$$$$$$$$$$$$$$$XX$XXXXXXXX$$$    ",
"$$$$$$$$$$$$$$$$$$$$$$$$$$$$$$XX$XXXXXXXX$$$    $$$$$$$$$$$$$$$$$$$$$$$$$$$$$$XX$XXXXXXXX$$$    ",
"$$$$$$$$$$$$$$$$$$$$$$$$$$$$$$$$*$$****$$$$$$++ $$$$$$$$$$$$$$$$$$$$$$$$$$$$$$$$*$$****$$$$$$++ ",
"$$$$$$$$$$$$$$$$$$$$$$$$$$$$$$$$$$$$$$$$$$$$$$$ $$$$$$$$$$$$$$$$$$$$$$$$$$$$$$$$$$$$$$$$$$$$$$$ ",
"$$$$$$$$$$$$$$$$$$$$$$$$$$$$$                                     $$$$$$$$$$$$$$$$$$$$$$$$$$$$$ ",
"$$$$$$$$$$$$$$$$$$$$$$$$$$   -&& &----;;-;;;-&  &----;-;;;;--& &&-   $$$$$$$$$$$$$$$$$$$$$$$$$$ ",
"XX$$$$$$$$$$$$$$$$$$$$$$$$   -&& &----;;-;;;-&  &----;-;;;;--& &&-   $$$$$$$$$$$$$$$$$$$$$$$$XX ",
"XX$$$$$$$$$$$$$$$$$$$$$$  &&---- -------------  -------------- ----&&  $$$$$$$$$$$$$$$$$$$$$$XX ",
"                        &;;;---- -------------  -------------- ----;;;&                         ",
"*****$$$$$$$$$$$$$$$$ &&;-----&& &-----------&  &------------& &&-----;&& $$$$**$********$$$$$$$",
"*****$$$$$$$$$$$$$$$$ &&;-----&& &-----------&  &------------& &&-----;&& $$$$**$********$$$$$$$",
"$$$$$$$$$$$$$$$$$$$$ &;;----&%%% %%%%%%%%%%%%%  %%%%%%%%%%%%%% %%%&----;;& $$$$$$$$$$$$$$$$$$$$$",
"$$$$$$$$$$$XXX$XX$$$ -----&&%%oo                               oo%%&&----- $$$$$$$$$$$$$$$$$$$$$",
"$$$$$$$$$$$XXX$XX$  &----&%%%    X..                       ..X    %%%&----&  $$$$$$$$$$$$$$$$$$$",
"$$$$$$$$$**$***$$$  &----&%%%    X..                       ..X    %%%&----&  $$$$$$$$$$$$$$$$$$$",
"$$$$$$$$$$$$$$$$$$  -----%%%    .XXX                       XXX.    %%%-----  $$$$$$$$$$$$$$$$$$$",
"$$$$$$$$$$$$$$$$$ &&----&%                                           %&----&& $$$$$$$$$$$$$$$$$$",
"$$$$$$$$$$$$$$$$$ &&----&%                                           %&----&& $$$$$$$$$$$$$$$$$$",
"$$$$$$$$$$$$$$$$$ ------%%   .XXX.                                   %%------ $$$$$$$$$$$$$$$$$$",
"$$$$$$$$$$$$$$$$$ ------%   .XXXXX                            XXXX.   %------ $$$$$$$$$$$$$$$$$$",
"                  &&--&&%   XXXXX.                            .XXXX   %&&--&&                   ",
"XX$$$$**$***===== &&--&&%   XXXXX.                            .XXXX   %&&--&& $$$$$$$$$$$$$$$XX ",
"XX$$$$**$***=====                                                             $$$$$$$$$$$$$$$XX ",
"$$$$$$$$$$$$$$$$$ &&--&&%    .XXXX..                         .XXX.    %&&--&& $$$$$$$$$$$$$$$$$ ",
"$$$$$$$$$$$$$$$$$ ------% ##O XXXXXX                         XXXX O## %------ $$$$$$$$$$$$$$$$$ ",
"$$$$$$$$$$$$$$$$$ ------% ##O XXXXXX                         XXXX O## %------ $$$$$$$$$$$$$$$$$ ",
"$$$$$$$$$$$$$$$$$ ;;----% ##@ XXXXXX                         XXXX @## %----;; $$$$$$$$$$$$$$$++ ",
"$$$$$$$$$$$$$$$$$ ;;----%    .XXXXXX                         XXXX.    %----;; $$$XXX$$X$$       ",
"$$$$$$$$$$$$$$$$$ ------% ..XXXXXX..                         .XXXXX.. %------ $$$XXX$$X$$       ",
"$$$$$$$$$$$$$$$$$ ------% ..XXXXXX..                         .XXXXX.. %------ $$$$$$**$***$$$$$ ",
"XX$$$$$$$$$$$$$$$ ;;----%                                             %----;; $$$$$$$$$$$$$$$XX ",
"XX$$$$$$$$$$$$$$$ ------%                                  ..XXXXXX.. %------ $$$$$$$$$$$$$$$XX ",
"                  ------% ..XXXXX.                         XXXXXXXXXX %------                   ",
"$$$$$$$$$$$$$$$$$ ------% ..XXXXX.                         XXXXXXXXXX %------ **$*****====***$$$",
"$$$$$$$$$$$$$$$$$ ------% XXXXXXXX                         XXXXXXXXXX %------ **$*****====***$$$",
"$$$$$$$$$$$$$$$$$ &&--&&% ..XXXXX.                         ..XXXXXX.. %&&--&& $$$$$$$$$$$$$$$$$$",
"$$$$$$XXXXX$$$X$$ &&--&&% ..XXXXX.                         ..XXXXXX.. %&&--&& $$$$$$$$$$$$$$$$$$",
"$$$$$$XXXXX$$$X$$                                                             $$$$$$$$$$$$$$$$$$",
"$$$$$$$$*$$$$$*** &&--&&% ..XXXX.                              ..XX.. %&&--&& $$$$$$$$$$$$$$$$$$",
"$$$$$$$$$$$$$$$$$ ------% XXXXXXX                              XXXXXX %------ $$$$$$$$$$$$$$$$$$",
"$$$$$$$$$$$$$$$$$ ------% XXXXXXX                              XXXXXX %------ $$$$$$$$$$$$$$$$$$",
"$$$$$$$$$$$$$$$$$ ;;----% XXXXXXX                              XXXXXX %----;; $$$$$$$$$$$$$$$$$$",
"$$$$$$$$$$$$$$$$$ ;;----% ..XXXX.   @@                    @@@  ..XX.. %----;; $$$$$$$$$$$$$$$$$$",
"$$$$$$$$$$$$$$$$$ ------%           O@                    @OO         %------ $$$$$$$$$$$$$$$$$$",
"                  ------%           O@                    @OO         %------                   ",
"XX$$$$$$*******$$ ;;----%           O@                    @OO    .X.. %----;; $$$$$$$$$$$$$$$XX ",
"XX$$$$$$*******$$ ------%   .XXX    O@                    @OO    XXXX %------ $$$$$$$$$$$$$$$XX ",
"$$$$$$$$$$$$$$$$$ ------%   XXXX    O@                    @OO    XXXX %------ $$$$$$$$$$$$$$$$$ ",
"$$$$$$$$$$$$$$$$$ ------%   XXXX    O@                    @OO    XXXX %------ XX$XXXXXXXX$$$    ",
"$$$$$$$$$$$$$$$$$ ------%   .XXX    O@                    @OO    .X.. %------ XX$XXXXXXXX$$$    ",
"$$$$$$$$$$$$$$$$$ &&--&&%           O@                    @OO         %&&--&& $$*$$****$$$$$$++ ",
"$$$$$$$$$$$$$$$$$         ..XXXX.   O@                    @OO                 $$$$$$$$$$$$$$$$$ ",
"$$$$$$$$$$$$$$$$$         ..XXXX.   O@                    @OO                 $$$$$$$$$$$$$$$$$ ",
"$$$$$$$$$$$$$$$$$ &&--&&% XXXXXXX   O@                    @OO  ..X.   %&&--&& $$$$$$$$$$$$$$$$$ ",
"XX$$$$$$$$$$$$$$$ ------% XXXXXXX   O@                    @OO  XXXX   %------ $$$$$$$$$$$$$$$XX ",
"XX$$$$$$$$$$$$$$$ ------% XXXXXXX   O@                    @OO  XXXX   %------ $$$$$$$$$$$$$$$XX ",
"                  ;;----% ..XXXX.   O@                    @OO  ..X.   %----;;                   ",
"*****$$$$$$$$$$$$ ;;----%           O@                    @OO         %----;; **$********$$$$$$$",
"*****$$$$$$$$$$$$ ------% ..XXXX.   O@                    @OO .XXXX.. %------ **$********$$$$$$$",
"$$$$$$$$$$$$$$$$$ ------% ..XXXX.   O@                    @OO .XXXX.. %------ $$$$$$$$$$$$$$$$$$",
"$$$$$$$$$$$XXX$XX ;;----%    .XXX                             XXX.    %----;; $$$$$$$$$$$$$$$$$$",
"$$$$$$$$$$$XXX$XX ------% ##@ XXX                             XXX @## %------ $$$$$$$$$$$$$$$$$$",
"$$$$$$$$$**$***$$ ------% ##O XXX                             XXX O## %------ $$$$$$$$$$$$$$$$$$",
"$$$$$$$$$$$$$$$$$ ------% ##O XXX                             XXX O## %------ $$$$$$$$$$$$$$$$$$",
"$$$$$$$$$$$$$$$$$ ------%    .XX.                             .XX.    %------ $$$$$$$$$$$$$$$$$$",
"$$$$$$$$$$$$$$$$$ &&--&&%                                             %&&--&& $$$$$$$$$$$$$$$$$$",
"$$$$$$$$$$$$$$$$$         ..XXXXX.                           .XXXXX..         $$$$$$$$$$$$$$$$$$",
"$$$$$$$$$$$$$$$$$         ..XXXXX.                           .XXXXX..         $$$$$$$$$$$$$$$$$$",
"                  &&--&&% XXXXXXXX                           XXXXXXXX %&&--&&                   ",
"XX$$$$**$***===== ------% ..XXXXX.                           XXXXXXXX %------ $$$$$$$$$$$$$$$XX ",
"XX$$$$**$***===== ;;----%                                    .XXXXX.. %----;; $$$$$$$$$$$$$$$XX ",
"$$$$$$$$$$$$$$$$$ ;;----%                                    .XXXXX.. %----;; $$$$$$$$$$$$$$$$$ ",
"$$$$$$$$$$$$$$$$$ ;;----%                                             %----;; $$$$$$$$$$$$$$$$$ ",
"$$$$$$$$$$$$$$$$$ ------% ..XXXX.                                     %------ $$$$$$$$$$$$$$$$$ ",
"$$$$$$$$$$$$$$$$$ ------% ..XXXX.                                     %------ $$$$$$$$$$$$$$$++ ",
"$$$$$$$$$$$$$$$$$ &&--&&% XXXXXXX                             .XXXX   %&&--&& $$$XXX$$X$$       ",
"$$$$$$$$$$$$$$$$$ %%%%%%o ..XXXX.                             XXXX.   o%%%%%% $$$XXX$$X$$       ",
"$$$$$$$$$$$$$$$$$                                                             $$$$$$**$***$$$$$ ",
"XX$$$$$$$$$$$$$$$                                                             $$$$$$$$$$$$$$$XX ",
"XX$$$$$$$$$$$$$$$                                                             $$$$$$$$$$$$$$$XX ",
"                                                                                                ",
"$$$$$$$$$$$$$$$$$$$$$XX XX$$$$**$*****====***$$$$$$$$$$$$$$$$$$$$$$$$XX XX$$$$**$*****====***$$$",
"$$$$$$$$$$$$$$$$$$$$$XX XX$$$$**$*****====***$$$$$$$$$$$$$$$$$$$$$$$$XX XX$$$$**$*****====***$$$",
"$$$$$$$$$$$$$$$$$$$$$$$ $$$$$$$$$$$$$$$$$$$$$$$$$$$$$$$$$$$$$$$$$$$$$$$ $$$$$$$$$$$$$$$$$$$$$$$$",
"$$$$$$XXXXX$$$X$$$      $$$$$$$$$$$$$$$$$$$$$$$$$$$$$$XXXXX$$$X$$$      $$$$$$$$$$$$$$$$$$$$$$$$",
"$$$$$$XXXXX$$$X$$$      $$$$$$$$$$$$$$$$$$$$$$$$$$$$$$XXXXX$$$X$$$      $$$$$$$$$$$$$$$$$$$$$$$$",
"$$$$$$$$*$$$$$***$**$++ $$$$$$$$$$$$$$$$$$$$$$$$$$$$$$$$*$$$$$***$**$++ $$$$$$$$$$$$$$$$$$$$$$$$",
"$$$$$$$$$$$$$$$$$$$$$$$ $$$$$$$$$$$$$$$$$$$$$$$$$$$$$$$$$$$$$$$$$$$$$$$ $$$$$$$$$$$$$$$$$$$$$$$$",
"$$$$$$$$$$$$$$$$$$$$$$$ $$$$$$$$$$$$$$$$$$$$$$$$$$$$$$$$$$$$$$$$$$$$$$$ $$$$$$$$$$$$$$$$$$$$$$$$",
"$$$$$$$$$$$$$$$$$$$$$$$ $$$$$$$$$$$$$$$$$$$$$$$$$$$$$$$$$$$$$$$$$$$$$$$ $$$$$$$$$$$$$$$$$$$$$$$$",
"$$$$$$$$$$$$$$$$$$$$$XX XX$$$$$$$$$$$$$$$$$$$$$$$$$$$$$$$$$$$$$$$$$$$XX XX$$$$$$$$$$$$$$$$$$$$$$",
"$$$$$$$$$$$$$$$$$$$$$XX XX$$$$$$$$$$$$$$$$$$$$$$$$$$$$$$$$$$$$$$$$$$$XX XX$$$$$$$$$$$$$$$$$$$$$$"
};
